<mxfile host="app.diagrams.net" modified="2023-02-09T05:25:43.658Z" agent="5.0 (Windows NT 10.0; Win64; x64) AppleWebKit/537.36 (KHTML, like Gecko) Chrome/109.0.0.0 Safari/537.36" etag="-7ZQw7gJutjNJIJQmb4b" version="20.8.18" type="github">
  <diagram name="Page-1" id="5f0bae14-7c28-e335-631c-24af17079c00">
    <mxGraphModel dx="1434" dy="788" grid="1" gridSize="10" guides="1" tooltips="1" connect="1" arrows="1" fold="1" page="1" pageScale="1" pageWidth="1100" pageHeight="850" background="none" math="0" shadow="0">
      <root>
        <mxCell id="0" />
        <mxCell id="1" parent="0" />
        <mxCell id="p_RIwWZ_3unIhQ3_zq3P-1" value="공지사항&lt;br&gt;입력하기" style="html=1;" vertex="1" parent="1">
          <mxGeometry x="120" y="200" width="110" height="50" as="geometry" />
        </mxCell>
        <mxCell id="p_RIwWZ_3unIhQ3_zq3P-2" value="채팅방 호출 시&lt;br&gt;공지사항 정보 파싱" style="html=1;" vertex="1" parent="1">
          <mxGeometry x="120" y="560" width="110" height="50" as="geometry" />
        </mxCell>
        <mxCell id="p_RIwWZ_3unIhQ3_zq3P-3" value="공지사항&lt;br&gt;수정하기" style="html=1;" vertex="1" parent="1">
          <mxGeometry x="120" y="320" width="110" height="50" as="geometry" />
        </mxCell>
        <mxCell id="p_RIwWZ_3unIhQ3_zq3P-4" value="공지사항&lt;br&gt;삭제하기" style="html=1;" vertex="1" parent="1">
          <mxGeometry x="120" y="440" width="110" height="50" as="geometry" />
        </mxCell>
        <mxCell id="p_RIwWZ_3unIhQ3_zq3P-5" value="공지사항&lt;br&gt;리스트 가져오기" style="html=1;" vertex="1" parent="1">
          <mxGeometry x="120" y="80" width="110" height="50" as="geometry" />
        </mxCell>
        <UserObject label="actionCode : GetBuilletinList" placeholders="1" name="Variable" id="p_RIwWZ_3unIhQ3_zq3P-9">
          <mxCell style="text;html=1;strokeColor=none;fillColor=none;align=center;verticalAlign=middle;whiteSpace=wrap;overflow=hidden;" vertex="1" parent="1">
            <mxGeometry x="230" y="30" width="130" height="50" as="geometry" />
          </mxCell>
        </UserObject>
        <UserObject label="actionCode :&amp;nbsp; SendBulletin" placeholders="1" name="Variable" id="p_RIwWZ_3unIhQ3_zq3P-11">
          <mxCell style="text;html=1;strokeColor=none;fillColor=none;align=center;verticalAlign=middle;whiteSpace=wrap;overflow=hidden;" vertex="1" parent="1">
            <mxGeometry x="230" y="150" width="130" height="50" as="geometry" />
          </mxCell>
        </UserObject>
        <UserObject label="actionCode :&amp;nbsp;&lt;br&gt;UpdateBulletin" placeholders="1" name="Variable" id="p_RIwWZ_3unIhQ3_zq3P-12">
          <mxCell style="text;html=1;strokeColor=none;fillColor=none;align=center;verticalAlign=middle;whiteSpace=wrap;overflow=hidden;" vertex="1" parent="1">
            <mxGeometry x="230" y="270" width="130" height="50" as="geometry" />
          </mxCell>
        </UserObject>
        <UserObject label="actionCode :&amp;nbsp;&lt;br&gt;DeleteBulletin" placeholders="1" name="Variable" id="p_RIwWZ_3unIhQ3_zq3P-13">
          <mxCell style="text;html=1;strokeColor=none;fillColor=none;align=center;verticalAlign=middle;whiteSpace=wrap;overflow=hidden;" vertex="1" parent="1">
            <mxGeometry x="230" y="390" width="130" height="50" as="geometry" />
          </mxCell>
        </UserObject>
        <UserObject label="actionCode :&amp;nbsp;&lt;br&gt;GetMeeingRoomInfo" placeholders="1" name="Variable" id="p_RIwWZ_3unIhQ3_zq3P-14">
          <mxCell style="text;html=1;strokeColor=none;fillColor=none;align=center;verticalAlign=middle;whiteSpace=wrap;overflow=hidden;" vertex="1" parent="1">
            <mxGeometry x="230" y="510" width="130" height="50" as="geometry" />
          </mxCell>
        </UserObject>
      </root>
    </mxGraphModel>
  </diagram>
</mxfile>
